# Blender 4.0.2
# www.blender.org
mtllib wood-wall.mtl
o Plane
v 1.000000 2.000000 -1.000000
v 1.000000 0.000000 -1.000000
v 0.898284 2.000000 -1.000000
v 0.898284 0.000000 -1.000000
v 1.000000 2.000000 -0.500000
v 1.000000 0.000000 -0.500000
v 0.898284 2.000000 -0.500000
v 0.898284 0.000000 -0.500000
v 1.000000 2.000000 0.000000
v 1.000000 0.000000 0.000000
v 0.898284 2.000000 0.000000
v 0.898284 0.000000 0.000000
vn -1.0000 -0.0000 -0.0000
vn -0.0000 1.0000 -0.0000
vn -0.0000 -0.0000 1.0000
vn -0.0000 -1.0000 -0.0000
vn -0.0000 -0.0000 -1.0000
vt 0.844801 0.933251
vt 0.207562 0.933251
vt 0.207562 0.066749
vt 0.844801 0.066749
vt 0.207562 0.022680
vt 0.844801 0.022680
vt 0.077927 0.933251
vt 0.077927 0.066749
vt 0.844801 0.977320
vt 0.207562 0.977320
s 0
usemtl Material
f 5/1/1 1/2/1 2/3/1 6/4/1
f 6/4/2 2/3/2 4/5/2 8/6/2
f 2/3/3 1/2/3 3/7/3 4/8/3
f 1/2/4 5/1/4 7/9/4 3/10/4
f 5/1/1 6/4/1 10/3/1 9/2/1
f 6/4/2 8/6/2 12/5/2 10/3/2
f 10/3/5 12/8/5 11/7/5 9/2/5
f 9/2/4 11/10/4 7/9/4 5/1/4
o Plane.001
v 1.000000 2.000000 0.000000
v 1.000000 0.000000 0.000000
v 0.898284 2.000000 0.000000
v 0.898284 0.000000 0.000000
v 1.000000 2.000000 0.500000
v 1.000000 0.000000 0.500000
v 0.898284 2.000000 0.500000
v 0.898284 0.000000 0.500000
v 1.000000 2.000000 1.000000
v 1.000000 0.000000 1.000000
v 0.898284 2.000000 1.000000
v 0.898284 0.000000 1.000000
vn -1.0000 -0.0000 -0.0000
vn -0.0000 1.0000 -0.0000
vn -0.0000 -0.0000 1.0000
vn -0.0000 -1.0000 -0.0000
vn -0.0000 -0.0000 -1.0000
vt 0.844801 0.933251
vt 0.207562 0.933251
vt 0.207562 0.066749
vt 0.844801 0.066749
vt 0.207562 0.022680
vt 0.844801 0.022680
vt 0.077927 0.933251
vt 0.077927 0.066749
vt 0.844801 0.977320
vt 0.207562 0.977320
s 0
usemtl Material
f 17/11/6 13/12/6 14/13/6 18/14/6
f 18/14/7 14/13/7 16/15/7 20/16/7
f 14/13/8 13/12/8 15/17/8 16/18/8
f 13/12/9 17/11/9 19/19/9 15/20/9
f 17/11/6 18/14/6 22/13/6 21/12/6
f 18/14/7 20/16/7 24/15/7 22/13/7
f 22/13/10 24/18/10 23/17/10 21/12/10
f 21/12/9 23/20/9 19/19/9 17/11/9
